<?xml version="1.0" encoding="UTF-8"?>
<svg xmlns="http://www.w3.org/2000/svg" xmlns:xlink="http://www.w3.org/1999/xlink" width="75px" height="20px" viewBox="0 0 74 20" version="1.1">
<g id="surface1">
<path style=" stroke:none;fill-rule:nonzero;fill:rgb(22.352941%,51.372552%,47.058824%);fill-opacity:1;" d="M 69.882812 15.738281 C 68.746094 15.738281 67.75 15.523438 66.898438 15.09375 C 66.0625 14.648438 65.410156 14.023438 64.945312 13.21875 C 64.492188 12.414062 64.265625 11.472656 64.265625 10.390625 C 64.265625 9.320312 64.496094 8.382812 64.964844 7.578125 C 65.429688 6.761719 66.082031 6.128906 66.917969 5.683594 C 67.757812 5.226562 68.722656 5 69.824219 5 C 70.578125 5 71.296875 5.136719 71.984375 5.414062 C 72.484375 5.605469 72.945312 5.871094 73.367188 6.203125 C 73.628906 6.410156 73.636719 6.796875 73.414062 7.046875 L 72.445312 8.117188 C 72.214844 8.371094 71.824219 8.378906 71.53125 8.199219 C 71.074219 7.910156 70.558594 7.765625 69.988281 7.765625 C 69.246094 7.765625 68.640625 8.007812 68.175781 8.496094 C 67.707031 8.964844 67.476562 9.589844 67.476562 10.367188 C 67.476562 11.144531 67.703125 11.777344 68.15625 12.261719 C 68.621094 12.734375 69.230469 12.96875 69.988281 12.96875 C 70.605469 12.96875 71.15625 12.808594 71.640625 12.480469 C 71.929688 12.289062 72.324219 12.285156 72.5625 12.539062 L 73.546875 13.589844 C 73.777344 13.835938 73.769531 14.226562 73.511719 14.441406 C 72.46875 15.304688 71.261719 15.738281 69.882812 15.738281 Z M 69.882812 15.738281 "/>
<path style=" stroke:none;fill-rule:nonzero;fill:rgb(22.352941%,51.372552%,47.058824%);fill-opacity:1;" d="M 61.398438 5 C 61.863281 5 62.332031 5.089844 62.796875 5.269531 C 63.105469 5.378906 63.386719 5.523438 63.640625 5.707031 C 63.871094 5.875 63.914062 6.191406 63.773438 6.441406 L 62.96875 7.851562 C 62.796875 8.160156 62.410156 8.25 62.089844 8.109375 C 62.007812 8.074219 61.929688 8.042969 61.851562 8.015625 C 61.601562 7.933594 61.34375 7.890625 61.066406 7.890625 C 60.382812 7.890625 59.839844 8.113281 59.441406 8.558594 C 59.042969 9 58.84375 9.652344 58.84375 10.515625 L 58.84375 14.886719 C 58.84375 15.230469 58.570312 15.507812 58.226562 15.507812 L 56.230469 15.507812 C 55.890625 15.507812 55.613281 15.230469 55.613281 14.886719 L 55.613281 5.851562 C 55.613281 5.507812 55.890625 5.226562 56.230469 5.226562 L 57.925781 5.226562 C 58.21875 5.226562 58.472656 5.4375 58.53125 5.730469 L 58.679688 6.519531 C 59.339844 5.503906 60.246094 5 61.398438 5 Z M 61.398438 5 "/>
<path style=" stroke:none;fill-rule:nonzero;fill:rgb(22.352941%,51.372552%,47.058824%);fill-opacity:1;" d="M 33.851562 5.617188 C 33.945312 5.382812 34.171875 5.226562 34.421875 5.226562 L 36.566406 5.226562 C 37.007812 5.226562 37.308594 5.6875 37.128906 6.097656 L 31.328125 19.589844 C 31.226562 19.816406 31.007812 19.964844 30.761719 19.964844 L 28.667969 19.964844 C 28.222656 19.964844 27.925781 19.503906 28.101562 19.089844 L 29.703125 15.363281 L 26.082031 6.078125 C 25.921875 5.671875 26.222656 5.226562 26.65625 5.226562 L 28.796875 5.226562 C 29.058594 5.226562 29.289062 5.390625 29.378906 5.636719 L 30.402344 8.472656 L 31.515625 11.824219 L 32.707031 8.472656 Z M 33.851562 5.617188 "/>
<path style=" stroke:none;fill-rule:nonzero;fill:rgb(22.352941%,51.372552%,47.058824%);fill-opacity:1;" d="M 23.882812 5.226562 C 24.222656 5.226562 24.5 5.507812 24.5 5.851562 L 24.5 14.886719 C 24.5 15.230469 24.222656 15.507812 23.882812 15.507812 L 22.222656 15.507812 C 21.921875 15.507812 21.664062 15.289062 21.613281 14.988281 L 21.496094 14.28125 C 20.628906 15.238281 19.503906 15.71875 18.117188 15.71875 C 17.171875 15.71875 16.328125 15.496094 15.585938 15.050781 C 14.859375 14.59375 14.289062 13.960938 13.878906 13.15625 C 13.464844 12.339844 13.261719 11.410156 13.261719 10.367188 C 13.261719 9.328125 13.464844 8.40625 13.878906 7.601562 C 14.289062 6.78125 14.859375 6.148438 15.585938 5.707031 C 16.328125 5.25 17.171875 5.019531 18.117188 5.019531 C 18.804688 5.019531 19.4375 5.144531 20.011719 5.394531 C 20.589844 5.628906 21.082031 5.976562 21.496094 6.433594 L 21.613281 5.746094 C 21.664062 5.445312 21.917969 5.226562 22.21875 5.226562 Z M 18.878906 12.96875 C 19.59375 12.96875 20.175781 12.734375 20.628906 12.261719 C 21.082031 11.777344 21.308594 11.144531 21.308594 10.367188 C 21.308594 9.589844 21.082031 8.964844 20.628906 8.496094 C 20.175781 8.007812 19.59375 7.765625 18.878906 7.765625 C 18.167969 7.765625 17.582031 8.007812 17.128906 8.496094 C 16.691406 8.980469 16.472656 9.605469 16.472656 10.367188 C 16.472656 11.132812 16.691406 11.753906 17.128906 12.242188 C 17.582031 12.726562 18.167969 12.96875 18.878906 12.96875 Z M 18.878906 12.96875 "/>
<path style=" stroke:none;fill-rule:nonzero;fill:rgb(22.352941%,51.372552%,47.058824%);fill-opacity:1;" d="M 6.949219 0.941406 C 8.0625 0.941406 9.027344 1.15625 9.851562 1.585938 C 10.691406 2 11.335938 2.605469 11.789062 3.394531 C 12.242188 4.1875 12.46875 5.109375 12.46875 6.164062 C 12.46875 7.21875 12.242188 8.140625 11.789062 8.933594 C 11.335938 9.722656 10.691406 10.332031 9.851562 10.761719 C 9.027344 11.179688 8.0625 11.386719 6.949219 11.386719 L 4.046875 11.386719 C 3.707031 11.386719 3.429688 11.667969 3.429688 12.011719 L 3.429688 14.886719 C 3.429688 15.230469 3.152344 15.507812 2.8125 15.507812 L 0.667969 15.507812 C 0.328125 15.507812 0.0546875 15.230469 0.0546875 14.886719 L 0.0546875 1.5625 C 0.0546875 1.21875 0.328125 0.941406 0.667969 0.941406 Z M 6.785156 8.410156 C 7.5 8.410156 8.0625 8.210938 8.472656 7.808594 C 8.898438 7.40625 9.109375 6.863281 9.109375 6.183594 C 9.109375 5.503906 8.898438 4.964844 8.472656 4.5625 C 8.0625 4.160156 7.5 3.957031 6.785156 3.957031 L 4.023438 3.957031 C 3.683594 3.957031 3.410156 4.238281 3.410156 4.582031 L 3.410156 7.789062 C 3.410156 8.132812 3.683594 8.410156 4.023438 8.410156 Z M 6.785156 8.410156 "/>
<path style=" stroke:none;fill-rule:nonzero;fill:rgb(22.352941%,51.372552%,47.058824%);fill-opacity:1;" d="M 53.839844 7.96875 C 53.839844 12.339844 50.332031 15.882812 46.011719 15.882812 C 41.6875 15.882812 38.183594 12.339844 38.183594 7.96875 C 38.183594 3.597656 41.6875 0.0546875 46.011719 0.0546875 C 50.332031 0.0546875 53.839844 3.597656 53.839844 7.96875 Z M 40.800781 7.96875 C 40.800781 10.878906 43.132812 13.238281 46.011719 13.238281 C 48.886719 13.238281 51.21875 10.878906 51.21875 7.96875 C 51.21875 5.058594 48.886719 2.703125 46.011719 2.703125 C 43.132812 2.703125 40.800781 5.058594 40.800781 7.96875 Z M 40.800781 7.96875 "/>
<path style=" stroke:none;fill-rule:nonzero;fill:rgb(22.352941%,51.372552%,47.058824%);fill-opacity:1;" d="M 51.410156 8.03125 C 51.410156 11.011719 49.019531 13.425781 46.070312 13.425781 C 43.125 13.425781 40.734375 11.011719 40.734375 8.03125 C 40.734375 5.050781 43.125 2.636719 46.070312 2.636719 C 49.019531 2.636719 51.410156 5.050781 51.410156 8.03125 Z M 51.410156 8.03125 "/>
<path style=" stroke:none;fill-rule:nonzero;fill:rgb(22.352941%,51.372552%,47.058824%);fill-opacity:1;" d="M 48.542969 7.96875 C 48.542969 9.382812 47.410156 10.53125 46.011719 10.53125 C 44.613281 10.53125 43.476562 9.382812 43.476562 7.96875 C 43.476562 6.554688 44.613281 5.410156 46.011719 5.410156 C 47.410156 5.410156 48.542969 6.554688 48.542969 7.96875 Z M 48.542969 7.96875 "/>
</g>
</svg>
